# xmcd
#
# Track frame offsets:
#	3000
#	14618
#	27153
#	41191
#	54123
#	75708
#	92606
#	106389
#	122594
#	135998
#	149261
#	166273
#	179751
#	198030
#	210195
#	229673
#	241297
#	256553
#
# Disc length: 3672 seconds
#
# Revision: 0
# Processed by: cddbd v1.5.2PL0 Copyright (c) Steve Scherf et al.
# Submitted via: EasyCDDAExtractor 12.0.4.1
#
DISCID=e10e3012
DTITLE=Various Artist - Beaut Ute Country Anthems cd2
DYEAR=2010
DGENRE=Country
TTITLE0=Jasmine Rae - Pink Guitar
TTITLE1=Steve Forde - I Ain't That Guy
TTITLE2=Lee Kernaghan - Girls Gone Wild
TTITLE3=Adam Brand - Thump
TTITLE4=Miranda Lambert - White Liar
TTITLE5=Emerson Drive - I Love This Road
TTITLE6=Joe Nichols - Gimme That Girl
TTITLE7=Markus Meier - A Different Land
TTITLE8=Corb Lund - The Truck Got Stuck
TTITLE9=The Sunny Cowgirls - Dancing On THe Darling
TTITLE10=Jessica Harp - Boy Like Me
TTITLE11=Shea Fisher - Make You Want To
TTITLE12=McAlister Kemp - All Kinds Of Tough
TTITLE13=Jonah's Road - Giddy Up
TTITLE14=Doc Walker - One Last Sundown
TTITLE15=Lianna Rose - Jack
TTITLE16=Lawrie Minson - Too Far Gone
TTITLE17=Jamey Johnson - Between Jennings And Jones
EXTD=
EXTT0=
EXTT1=
EXTT2=
EXTT3=
EXTT4=
EXTT5=
EXTT6=
EXTT7=
EXTT8=
EXTT9=
EXTT10=
EXTT11=
EXTT12=
EXTT13=
EXTT14=
EXTT15=
EXTT16=
EXTT17=
PLAYORDER=
